<svg width="16" height="16" viewBox="0 0 16 16" fill="none" xmlns="http://www.w3.org/2000/svg">
<path d="M15.4918 4.72462C15.4559 3.91109 15.3243 3.35179 15.1359 2.86715C14.9415 2.35272 14.6424 1.89215 14.2505 1.50928C13.8676 1.12045 13.404 0.818309 12.8956 0.626931C12.4081 0.438474 11.8517 0.306916 11.0382 0.271047C10.2186 0.232141 9.9584 0.223145 7.87965 0.223145C5.80089 0.223145 5.5407 0.232141 4.72413 0.26801C3.9106 0.303879 3.3513 0.435553 2.86678 0.623893C2.35223 0.818309 1.89166 1.11741 1.50879 1.50928C1.11996 1.89215 0.817938 2.35576 0.626443 2.86423C0.437986 3.35179 0.306428 3.90805 0.270559 4.72158C0.231653 5.54119 0.222656 5.80138 0.222656 7.88014C0.222656 9.95889 0.231653 10.2191 0.267521 11.0357C0.30339 11.8492 0.435065 12.4085 0.623522 12.8931C0.817938 13.4076 1.11996 13.8681 1.50879 14.251C1.89166 14.6398 2.35527 14.942 2.86374 15.1333C3.3513 15.3218 3.90756 15.4534 4.72121 15.4892C5.53766 15.5252 5.79797 15.5341 7.87673 15.5341C9.95548 15.5341 10.2157 15.5252 11.0322 15.4892C11.8458 15.4534 12.4051 15.3218 12.8896 15.1333C13.9186 14.7355 14.7321 13.922 15.1299 12.8931C15.3183 12.4056 15.4499 11.8492 15.4858 11.0357C15.5217 10.2191 15.5307 9.95889 15.5307 7.88014C15.5307 5.80138 15.5276 5.54119 15.4918 4.72462ZM14.113 10.9758C14.08 11.7236 13.9544 12.1274 13.8498 12.3966C13.5925 13.0636 13.0631 13.593 12.3961 13.8502C12.1269 13.9549 11.7202 14.0805 10.9753 14.1134C10.1678 14.1493 9.92557 14.1582 7.88269 14.1582C5.8398 14.1582 5.59456 14.1493 4.78991 14.1134C4.04216 14.0805 3.63837 13.9549 3.36918 13.8502C3.03725 13.7276 2.73511 13.5332 2.48987 13.2789C2.23563 13.0306 2.04122 12.7315 1.91854 12.3996C1.81385 12.1304 1.68825 11.7236 1.65542 10.9789C1.61944 10.1713 1.61056 9.92898 1.61056 7.8861C1.61056 5.84321 1.61944 5.59797 1.65542 4.79343C1.68825 4.04568 1.81385 3.6419 1.91854 3.3727C2.04122 3.04065 2.23563 2.73863 2.4929 2.49328C2.74107 2.23904 3.04017 2.04462 3.37222 1.92206C3.64141 1.81738 4.04823 1.69178 4.79295 1.65883C5.60052 1.62296 5.84284 1.61397 7.88561 1.61397C9.93153 1.61397 10.1737 1.62296 10.9784 1.65883C11.7261 1.69178 12.1299 1.81738 12.3991 1.92206C12.731 2.04462 13.0332 2.23904 13.2784 2.49328C13.5327 2.74155 13.7271 3.04065 13.8498 3.3727C13.9544 3.6419 14.08 4.0486 14.113 4.79343C14.1489 5.60101 14.1579 5.84321 14.1579 7.8861C14.1579 9.92898 14.1489 10.1683 14.113 10.9758Z" fill="black"/>
<path d="M7.87849 3.9458C5.70709 3.9458 3.94531 5.70746 3.94531 7.87898C3.94531 10.0505 5.70709 11.8122 7.87849 11.8122C10.05 11.8122 11.8117 10.0505 11.8117 7.87898C11.8117 5.70746 10.05 3.9458 7.87849 3.9458ZM7.87849 10.4303C6.4698 10.4303 5.32714 9.2878 5.32714 7.87898C5.32714 6.47017 6.4698 5.32763 7.87849 5.32763C9.28731 5.32763 10.4299 6.47017 10.4299 7.87898C10.4299 9.2878 9.28731 10.4303 7.87849 10.4303V10.4303Z" fill="black"/>
<path d="M12.886 3.78962C12.886 4.2966 12.4749 4.70767 11.9678 4.70767C11.4609 4.70767 11.0498 4.2966 11.0498 3.78962C11.0498 3.28253 11.4609 2.87158 11.9678 2.87158C12.4749 2.87158 12.886 3.28253 12.886 3.78962V3.78962Z" fill="black"/>
</svg>
